<svg id="Layer_1" data-name="Layer 1" xmlns="http://www.w3.org/2000/svg" viewBox="0 0 480 511.99"><defs><style>.cls-1{fill:#009866;}</style></defs><path class="cls-1" d="M466.5,83.71l-192-80A57.38,57.38,0,0,0,256.06,0a57.49,57.49,0,0,0-18.46,3.7l-192,80C27.7,91.1,16,108.6,16,127.1,16,385.2,205.2,512,255.9,512,307.1,512,496,383.8,496,127.1,496,108.6,484.3,91.1,466.5,83.71ZM352,200a23.94,23.94,0,0,1-5.78,15.62l-96,112c-6.72,7.88-15.62,7.48-18.22,7.48a24,24,0,0,1-17-7l-48-48c-4.73-3.77-7-10-7-17a24,24,0,0,1,41-17l29.69,29.69,79.13-92.34A24,24,0,0,1,328,175.12C346.4,176,352,192.6,352,200Z" transform="translate(-16 -0.01)"/></svg>