<svg id="Layer_1" data-name="Layer 1" xmlns="http://www.w3.org/2000/svg" viewBox="0 0 640 512"><defs><style>.cls-1{fill:#009866;}</style></defs><path class="cls-1" d="M400,0a48,48,0,0,1,48,48v96a48,48,0,0,1-48,48H344v40H616a24,24,0,0,1,0,48H504v40h56a48,48,0,0,1,48,48v96a48,48,0,0,1-48,48H400a48,48,0,0,1-48-48V368a48,48,0,0,1,48-48h56V280H184v40h56a48,48,0,0,1,48,48v96a48,48,0,0,1-48,48H80a48,48,0,0,1-48-48V368a48,48,0,0,1,48-48h56V280H24a24,24,0,0,1,0-48H296V192H240a48,48,0,0,1-48-48V48A48,48,0,0,1,240,0Zm0,48H240v96H400ZM80,464H240V368H80Zm480-96H400v96H560Z"/></svg>