<svg id="Layer_1" data-name="Layer 1" xmlns="http://www.w3.org/2000/svg" viewBox="0 0 971.3 230.37"><defs><style>.cls-1{fill:#029966;}.cls-2{fill:#fff;}.cls-3{fill:#219848;}.cls-4{fill:#666766;}</style></defs><path class="cls-1" d="M123,6.88A38.94,38.94,0,1,0,162,45.81,38.93,38.93,0,0,0,123,6.88m0,50.91a12,12,0,1,1,12-12,12,12,0,0,1-12,12" transform="translate(-7.82 -6.88)"/><path class="cls-1" d="M161.18,45A38.94,38.94,0,1,0,200.11,84,38.93,38.93,0,0,0,161.18,45m0,50.92a12,12,0,1,1,12-12,12,12,0,0,1-12,12" transform="translate(-7.82 -6.88)"/><path class="cls-1" d="M199.27,83.14a38.94,38.94,0,1,0,38.94,38.93,38.93,38.93,0,0,0-38.94-38.93m0,50.91a12,12,0,1,1,12-12,12,12,0,0,1-12,12" transform="translate(-7.82 -6.88)"/><path class="cls-1" d="M161.16,121.27a38.94,38.94,0,1,0,38.93,38.94,38.93,38.93,0,0,0-38.93-38.94m0,50.92a12,12,0,1,1,12-12,12,12,0,0,1-12,12" transform="translate(-7.82 -6.88)"/><path class="cls-1" d="M123.05,159.38A38.94,38.94,0,1,0,162,198.31a38.93,38.93,0,0,0-38.93-38.93m0,50.91a12,12,0,1,1,12-12,12,12,0,0,1-12,12" transform="translate(-7.82 -6.88)"/><path class="cls-1" d="M85,121.32a38.94,38.94,0,1,0,38.94,38.93A38.93,38.93,0,0,0,85,121.32m0,50.91a12,12,0,1,1,12-12,12,12,0,0,1-12,12" transform="translate(-7.82 -6.88)"/><path class="cls-1" d="M46.75,83.08A38.94,38.94,0,1,0,85.69,122,38.93,38.93,0,0,0,46.75,83.08m0,50.92a12,12,0,1,1,12-12,12,12,0,0,1-12,12" transform="translate(-7.82 -6.88)"/><path class="cls-1" d="M84.87,45A38.94,38.94,0,1,0,123.81,83.9,38.93,38.93,0,0,0,84.87,45m0,50.92a12,12,0,1,1,12-12,12,12,0,0,1-12,12" transform="translate(-7.82 -6.88)"/><path class="cls-2" d="M142.83,66.34c.27-.26.53-.52.79-.79-.27.25-.54.52-.79.79" transform="translate(-7.82 -6.88)"/><path class="cls-2" d="M161.14,55.49l-.46,0a28.16,28.16,0,0,0-12,2.92l-.24.1a23.83,23.83,0,0,0-3.06,1.87,27.65,27.65,0,0,0-2.44,1.87h0l-.89.6a25.32,25.32,0,0,1-18.83,8.4H123a25.46,25.46,0,0,1,0-50.91h.17a25.48,25.48,0,0,1,25.45,25.45c0,.47,0,.92-.07,1.37.94-.32,1.9-.61,2.88-.86,0-.17,0-.33,0-.51a28.37,28.37,0,1,0-28.37,28.45l.43,0a28.31,28.31,0,0,0,12.21-3,30,30,0,0,1,2-3.22,27.57,27.57,0,0,0-2,3.22,1.33,1.33,0,0,1-.06.12,28.84,28.84,0,0,0,7.16-5c.26-.27.52-.53.79-.79a25.29,25.29,0,0,1,16.15-7c.46,0,.91-.07,1.37-.07a25.49,25.49,0,0,1,25.45,25.46c0,.46,0,.92-.06,1.38,1-.35,2-.65,3-.91,0-.16,0-.31,0-.47a28.48,28.48,0,0,0-28.45-28.45" transform="translate(-7.82 -6.88)"/><path class="cls-2" d="M85.34,55.48l-.46,0A28.48,28.48,0,0,0,56.43,83.91c0,.15,0,.29,0,.44,1,.26,2,.56,3,.91,0-.45-.07-.9-.07-1.35A25.49,25.49,0,0,1,84.88,58.45c.46,0,.91,0,1.36.07a25.29,25.29,0,0,1,16.22,7.06,28.57,28.57,0,0,1-4.87-7.06,28.07,28.07,0,0,0-12.25-3" transform="translate(-7.82 -6.88)"/><path class="cls-2" d="M65.28,139.4c-.36.34-.7.69-1,1,.36-.34.7-.69,1-1" transform="translate(-7.82 -6.88)"/><path class="cls-2" d="M66.32,142.61c.38-.37.75-.74,1.12-1.13-.39.36-.76.74-1.12,1.13" transform="translate(-7.82 -6.88)"/><path class="cls-2" d="M67.44,141.48a28.39,28.39,0,0,0,5-6.84,28.56,28.56,0,0,0-7.13,4.76c-.34.36-.68.71-1,1a28.35,28.35,0,0,0-4.87,7,28.76,28.76,0,0,0,6.95-4.86c.36-.39.73-.76,1.12-1.13" transform="translate(-7.82 -6.88)"/><path class="cls-2" d="M186.54,96.63a28.52,28.52,0,0,1-12.71,12.71l0,.08a28.9,28.9,0,0,0,7-4.88c.32-.35.66-.68,1-1a28.33,28.33,0,0,0,4.91-7,1.89,1.89,0,0,1-.21.09" transform="translate(-7.82 -6.88)"/><path class="cls-2" d="M198.82,150.48c-.27-1-.57-2-.91-3a25.33,25.33,0,0,1-16.28-7.09,28.56,28.56,0,0,1,5.09,7.19,28.08,28.08,0,0,0,12.1,2.94" transform="translate(-7.82 -6.88)"/><path class="cls-2" d="M113.31,83.48c-1-.26-2-.56-3-.91,0,.45.06.89.06,1.34a25.49,25.49,0,0,1-25.45,25.46c-.46,0-.91-.05-1.36-.07a25.31,25.31,0,0,1-16.28-7.12c-.2-.19-.39-.37-.58-.57a28.61,28.61,0,0,0-7.22-5.08,28.51,28.51,0,0,0,5,7.12c.26.24.51.49.75.74a28.76,28.76,0,0,0,7.14,5,28.22,28.22,0,0,0,12.09,3l.45,0a28.48,28.48,0,0,0,28.45-28.45c0-.15,0-.29,0-.43" transform="translate(-7.82 -6.88)"/><path class="cls-2" d="M46.76,147.48a25.46,25.46,0,1,1,17.51-43.89,28.51,28.51,0,0,1-4.9-7,28.13,28.13,0,0,0-12.61-3,28.46,28.46,0,0,0,0,56.91c.2,0,.4,0,.59,0a28.23,28.23,0,0,0,12-3,28.35,28.35,0,0,1,4.87-7,25.37,25.37,0,0,1-16,7c-.5,0-1,.07-1.51.07" transform="translate(-7.82 -6.88)"/><path class="cls-2" d="M64.27,140.62c.41-.38.8-.77,1.19-1.18-.41.38-.8.78-1.19,1.18" transform="translate(-7.82 -6.88)"/><path class="cls-2" d="M66.47,142.67c.35-.34.7-.68,1-1-.35.33-.7.67-1,1" transform="translate(-7.82 -6.88)"/><path class="cls-2" d="M178.83,141.94l.6.61-.6-.61" transform="translate(-7.82 -6.88)"/><path class="cls-2" d="M161.6,131.74c.26,1,.56,2,.9,3a25.33,25.33,0,0,1,16.33,7.16,28.27,28.27,0,0,1-5.07-7.21,28.27,28.27,0,0,0-12.16-3" transform="translate(-7.82 -6.88)"/><path class="cls-2" d="M181.63,140.51c-.25-.26-.5-.52-.76-.77.25.26.5.52.76.77" transform="translate(-7.82 -6.88)"/><path class="cls-2" d="M180.87,139.74a28.38,28.38,0,0,0-7.11-5,28.27,28.27,0,0,0,5.07,7.21c.21.2.4.4.6.61a28.45,28.45,0,0,0,7.19,5.08,28.44,28.44,0,0,0-5-7.12c-.26-.25-.51-.51-.76-.77" transform="translate(-7.82 -6.88)"/><polygon class="cls-2" points="173.08 132.94 173.34 133.11 173.81 133.47 176.1 135.87 179.21 140.53 178.9 140.66 178.4 140.49 172.91 133.48 173.08 132.94"/><path class="cls-2" d="M186.4,147.48l.16.12s1.93.73,2,.73-.11-.53-.11-.53l-1.63-.62-.39,0Z" transform="translate(-7.82 -6.88)"/><path class="cls-2" d="M122.69,169.85a28.17,28.17,0,0,0-12.32,3,28.52,28.52,0,0,1-5.26,7.4,25.37,25.37,0,0,1,16.68-7.36c.34-1,.64-2,.9-3" transform="translate(-7.82 -6.88)"/><path class="cls-2" d="M103.1,178l-.4.41a28.75,28.75,0,0,0-5.15,7.28,28.52,28.52,0,0,0,7.38-5.27l.18-.19a28.52,28.52,0,0,0,5.26-7.4A28.59,28.59,0,0,0,103.1,178" transform="translate(-7.82 -6.88)"/><path class="cls-2" d="M84.89,131.7l-.47,0a28.61,28.61,0,0,0-19,7.72c-.39.41-.78.8-1.19,1.18a28.35,28.35,0,0,0-4.83,6.93,28.62,28.62,0,0,0,7-4.88c.33-.36.68-.7,1-1a25.39,25.39,0,0,1,16-6.88c.46,0,.91-.07,1.38-.07a25.49,25.49,0,0,1,25.46,25.46c0,.48,0,.94-.08,1.41,1-.34,2-.64,3-.91,0-.17,0-.33,0-.5A28.48,28.48,0,0,0,84.89,131.7" transform="translate(-7.82 -6.88)"/><path class="cls-2" d="M143.78,178.7c-.41-.44-.83-.86-1.26-1.27.41.44.82.86,1.26,1.27" transform="translate(-7.82 -6.88)"/><path class="cls-2" d="M140.32,179.48c.46.49.93,1,1.41,1.42-.45-.49-.92-1-1.41-1.42" transform="translate(-7.82 -6.88)"/><path class="cls-2" d="M189.57,159.74c-1-.27-2-.56-3-.91,0,.45.07.89.07,1.34a25.49,25.49,0,0,1-25.46,25.46c-.45,0-.89,0-1.33-.07a25.27,25.27,0,0,1-16-6.86c-.44-.41-.85-.83-1.26-1.27a29,29,0,0,0-6.91-4.81,28.17,28.17,0,0,0-25.22,0,28.93,28.93,0,0,0-7.08,5c-.27.29-.55.57-.84.85a25.27,25.27,0,0,1-16.16,7.05c-.48,0-.94.07-1.42.07a25.48,25.48,0,0,1-25.46-25.45c0-.47,0-.92.07-1.38-1,.35-2,.65-3,.91,0,.16,0,.31,0,.47A28.48,28.48,0,0,0,84.89,188.6l.5,0a28.55,28.55,0,0,0,19.13-7.92c.32-.33.64-.66,1-1a25.35,25.35,0,0,1,16.35-7c0,.06,0,.13,0,.19.41,0,.82-.06,1.23-.06a25.46,25.46,0,1,1-25.45,25.45c0-.41,0-.82.06-1.23-1,.34-2,.64-3,.9,0,.11,0,.22,0,.33a28.45,28.45,0,1,0,53.87-12.72l.12.07a28.21,28.21,0,0,0,12.15,3l.43,0a28.48,28.48,0,0,0,28.45-28.45c0-.15,0-.29,0-.43" transform="translate(-7.82 -6.88)"/><path class="cls-2" d="M173.83,109.34a28.52,28.52,0,0,0,12.71-12.71,28.67,28.67,0,0,0-12.71,12.71" transform="translate(-7.82 -6.88)"/><path class="cls-2" d="M180.68,100.67l5.86-4a28.55,28.55,0,0,0-5.86,4" transform="translate(-7.82 -6.88)"/><path class="cls-2" d="M162.52,109.32c-.46,0-.92.07-1.38.07a25.49,25.49,0,0,1-25.46-25.45c0-.46,0-.91.07-1.37-1,.35-2,.65-3,.91,0,.15,0,.3,0,.46a28.48,28.48,0,0,0,28.45,28.45l.47,0a28.21,28.21,0,0,0,12.22-3,28.59,28.59,0,0,1,6.84-8.66l-1.1.76a25.38,25.38,0,0,1-17,7.88" transform="translate(-7.82 -6.88)"/><path class="cls-2" d="M199.25,93.6a28.22,28.22,0,0,0-12.5,2.94,28.6,28.6,0,0,1-4.91,7,25.44,25.44,0,1,1,17.41,44c-.45,0-.9,0-1.34-.07.34,1,.64,2,.91,3,.14,0,.28,0,.43,0a28.46,28.46,0,0,0,0-56.91" transform="translate(-7.82 -6.88)"/><path class="cls-2" d="M161.14,131.72a28.48,28.48,0,0,0-28.45,28.45c0,.15,0,.31,0,.46,1,.27,2,.56,3,.91,0-.46-.07-.91-.07-1.37a25.49,25.49,0,0,1,25.46-25.46c.46,0,.91,0,1.36.07-.34-1-.64-2-.9-3l-.46,0" transform="translate(-7.82 -6.88)"/><path class="cls-3" d="M132.71,160.63c1,.27,2,.56,3,.91-1-.35-2-.64-3-.91" transform="translate(-7.82 -6.88)"/><rect class="cls-1" x="301.04" y="74.2" width="6.28" height="72.16"/><polygon class="cls-1" points="343.7 79.68 317.86 79.68 317.86 74.2 375.83 74.2 375.83 79.68 349.99 79.68 349.99 146.36 343.7 146.36 343.7 79.68"/><rect class="cls-1" x="386.37" y="74.2" width="6.28" height="72.16"/><polygon class="cls-1" points="411.3 74.2 417.58 74.2 417.58 140.89 454.87 140.89 454.87 146.36 411.3 146.36 411.3 74.2"/><rect class="cls-1" x="465.82" y="74.2" width="6.28" height="72.16"/><polygon class="cls-1" points="508.48 79.68 482.64 79.68 482.64 74.2 540.61 74.2 540.61 79.68 514.76 79.68 514.76 146.36 508.48 146.36 508.48 79.68"/><rect class="cls-1" x="551.15" y="74.2" width="6.28" height="72.16"/><polygon class="cls-4" points="660.49 74.2 660.49 146.36 654.21 146.36 654.21 112.51 608.2 112.51 608.2 146.36 601.92 146.36 601.92 74.2 608.2 74.2 608.2 106.94 654.21 106.94 654.21 74.2 660.49 74.2"/><polygon class="cls-4" points="679.14 74.2 723.63 74.2 723.63 79.57 685.32 79.57 685.32 106.94 721.6 106.94 721.6 112.51 685.32 112.51 685.32 140.99 723.63 140.99 723.63 146.36 679.14 146.36 679.14 74.2"/><path class="cls-4" d="M791.74,134H752.83l-8.31,19.26H738l31.41-72.16h5.68l31.32,72.16H800Zm-2.43-5.47-17-39.82-17.12,39.82Z" transform="translate(-7.82 -6.88)"/><polygon class="cls-4" points="810.58 74.2 816.86 74.2 816.86 140.89 854.15 140.89 854.15 146.36 810.58 146.36 810.58 74.2"/><polygon class="cls-4" points="870.06 79.68 844.22 79.68 844.22 74.2 902.19 74.2 902.19 79.68 876.35 79.68 876.35 146.36 870.06 146.36 870.06 79.68"/><polygon class="cls-4" points="971.3 74.2 971.3 146.36 965.02 146.36 965.02 112.51 919.01 112.51 919.01 146.36 912.73 146.36 912.73 74.2 919.01 74.2 919.01 106.94 965.02 106.94 965.02 74.2 971.3 74.2"/></svg>