<svg id="Layer_1" data-name="Layer 1" xmlns="http://www.w3.org/2000/svg" viewBox="0 0 230.39 230.37"><defs><style>.cls-1{fill:#029966;}.cls-2{fill:#fff;}.cls-3{fill:#219848;}</style></defs><path class="cls-1" d="M122.4,7.22a38.94,38.94,0,1,0,38.93,38.93A38.93,38.93,0,0,0,122.4,7.22m0,50.91a12,12,0,1,1,12-12,12,12,0,0,1-12,12" transform="translate(-7.21 -7.22)"/><path class="cls-1" d="M160.56,45.38A38.94,38.94,0,1,0,199.5,84.31a38.93,38.93,0,0,0-38.94-38.93m0,50.91a12,12,0,1,1,12-12,12,12,0,0,1-12,12" transform="translate(-7.21 -7.22)"/><path class="cls-1" d="M198.66,83.48a38.94,38.94,0,1,0,38.93,38.93,38.93,38.93,0,0,0-38.93-38.93m0,50.91a12,12,0,1,1,12-12,12,12,0,0,1-12,12" transform="translate(-7.21 -7.22)"/><path class="cls-1" d="M160.54,121.61a38.94,38.94,0,1,0,38.94,38.93,38.93,38.93,0,0,0-38.94-38.93m0,50.91a12,12,0,1,1,12-12,12,12,0,0,1-12,12" transform="translate(-7.21 -7.22)"/><path class="cls-1" d="M122.44,159.71a38.94,38.94,0,1,0,38.93,38.94,38.93,38.93,0,0,0-38.93-38.94m0,50.92a12,12,0,1,1,12-12,12,12,0,0,1-12,12" transform="translate(-7.21 -7.22)"/><path class="cls-1" d="M84.38,121.66a38.94,38.94,0,1,0,38.93,38.93,38.93,38.93,0,0,0-38.93-38.93m0,50.91a12,12,0,1,1,12-12,12,12,0,0,1-12,12" transform="translate(-7.21 -7.22)"/><path class="cls-1" d="M46.14,83.42a38.94,38.94,0,1,0,38.93,38.93A38.93,38.93,0,0,0,46.14,83.42m0,50.91a12,12,0,1,1,12-12,12,12,0,0,1-12,12" transform="translate(-7.21 -7.22)"/><path class="cls-1" d="M84.26,45.3a38.94,38.94,0,1,0,38.93,38.94A38.93,38.93,0,0,0,84.26,45.3m0,50.92a12,12,0,1,1,12-12,12,12,0,0,1-12,12" transform="translate(-7.21 -7.22)"/><path class="cls-2" d="M142.21,66.68l.8-.79c-.27.25-.54.52-.8.79" transform="translate(-7.21 -7.22)"/><path class="cls-2" d="M160.52,55.82l-.45,0a28.2,28.2,0,0,0-12,2.92l-.23.1a23.16,23.16,0,0,0-3.06,1.87,24.63,24.63,0,0,0-2.44,1.87h0l-.89.6a25.38,25.38,0,0,1-18.84,8.4h-.16a25.46,25.46,0,1,1,0-50.91h.16A25.48,25.48,0,0,1,148,46.15c0,.46-.05.92-.07,1.37.94-.32,1.9-.61,2.87-.86,0-.17,0-.34,0-.51A28.37,28.37,0,1,0,122.48,74.6l.42,0a28.22,28.22,0,0,0,12.22-3,28.29,28.29,0,0,1,1.95-3.21,27.44,27.44,0,0,0-1.95,3.21l-.06.13a28.6,28.6,0,0,0,7.15-5c.26-.28.53-.54.8-.79a25.25,25.25,0,0,1,16.15-7c.45,0,.91-.07,1.36-.07A25.49,25.49,0,0,1,186,84.28c0,.46,0,.91-.07,1.38,1-.35,2-.65,3-.91,0-.16,0-.32,0-.47a28.5,28.5,0,0,0-28.46-28.46" transform="translate(-7.21 -7.22)"/><path class="cls-2" d="M84.72,55.82c-.15,0-.3,0-.46,0A28.49,28.49,0,0,0,55.81,84.25c0,.15,0,.29,0,.44,1,.26,2.05.56,3.05.9,0-.45-.07-.89-.07-1.34A25.49,25.49,0,0,1,84.26,58.79c.46,0,.91,0,1.37.07a25.29,25.29,0,0,1,16.22,7.06A28.62,28.62,0,0,1,97,58.85a28.21,28.21,0,0,0-12.26-3" transform="translate(-7.21 -7.22)"/><path class="cls-2" d="M64.67,139.74c-.36.34-.7.69-1,1,.35-.34.7-.69,1-1" transform="translate(-7.21 -7.22)"/><path class="cls-2" d="M65.7,143c.39-.37.76-.75,1.12-1.13-.38.36-.75.74-1.12,1.13" transform="translate(-7.21 -7.22)"/><path class="cls-2" d="M66.82,141.82a28.16,28.16,0,0,0,5-6.84,28.56,28.56,0,0,0-7.13,4.76c-.34.36-.69.71-1,1a28.38,28.38,0,0,0-4.88,7,28.65,28.65,0,0,0,7-4.86c.37-.39.74-.77,1.12-1.13" transform="translate(-7.21 -7.22)"/><path class="cls-2" d="M185.93,97a28.57,28.57,0,0,1-12.71,12.71l0,.07a28.53,28.53,0,0,0,7-4.87c.33-.35.67-.68,1-1a28.6,28.6,0,0,0,4.91-7c-.07,0-.15.06-.21.09" transform="translate(-7.21 -7.22)"/><path class="cls-2" d="M198.2,150.82c-.26-1-.56-2-.91-3a25.29,25.29,0,0,1-16.27-7.1,28.63,28.63,0,0,1,5.08,7.19,28,28,0,0,0,12.1,2.95" transform="translate(-7.21 -7.22)"/><path class="cls-2" d="M112.7,83.82c-1-.27-2-.57-3-.91,0,.44.07.88.07,1.34A25.49,25.49,0,0,1,84.26,109.7c-.45,0-.9,0-1.35-.07a25.28,25.28,0,0,1-16.29-7.11l-.57-.57a28.66,28.66,0,0,0-7.23-5.08,28.55,28.55,0,0,0,5,7.12c.25.24.5.48.75.74a28.4,28.4,0,0,0,7.14,5,28,28,0,0,0,12.08,2.94c.15,0,.3,0,.45,0a28.49,28.49,0,0,0,28.46-28.45c0-.15,0-.29,0-.43" transform="translate(-7.21 -7.22)"/><path class="cls-2" d="M46.15,147.82a25.46,25.46,0,1,1,17.51-43.89,28.25,28.25,0,0,1-4.9-7,28.16,28.16,0,0,0-12.61-3,28.45,28.45,0,0,0,0,56.9c.2,0,.39,0,.59,0a28.17,28.17,0,0,0,12-3,28.62,28.62,0,0,1,4.87-7,25.26,25.26,0,0,1-16,7c-.5,0-1,.08-1.51.08" transform="translate(-7.21 -7.22)"/><path class="cls-2" d="M63.66,141c.41-.38.8-.77,1.18-1.18-.4.38-.8.77-1.18,1.18" transform="translate(-7.21 -7.22)"/><path class="cls-2" d="M65.85,143c.36-.33.7-.67,1-1-.35.34-.7.68-1,1" transform="translate(-7.21 -7.22)"/><path class="cls-2" d="M178.22,142.28c.19.2.39.41.59.6l-.59-.6" transform="translate(-7.21 -7.22)"/><path class="cls-2" d="M161,132.08c.27,1,.56,2,.91,3a25.36,25.36,0,0,1,16.33,7.16,28.61,28.61,0,0,1-5.08-7.22,28.23,28.23,0,0,0-12.16-3" transform="translate(-7.21 -7.22)"/><path class="cls-2" d="M181,140.85l-.77-.78.77.78" transform="translate(-7.21 -7.22)"/><path class="cls-2" d="M180.25,140.07a28.53,28.53,0,0,0-7.11-5,28.83,28.83,0,0,0,5.07,7.22l.61.6A28.24,28.24,0,0,0,186,148a28.44,28.44,0,0,0-5-7.12c-.26-.25-.51-.51-.77-.78" transform="translate(-7.21 -7.22)"/><polygon class="cls-2" points="173.08 132.94 173.34 133.11 173.81 133.47 176.1 135.87 179.21 140.53 178.9 140.66 178.4 140.49 172.91 133.48 173.08 132.94"/><path class="cls-2" d="M185.79,147.82l.16.12s1.93.73,2,.73-.1-.53-.1-.53l-1.63-.62-.4,0Z" transform="translate(-7.21 -7.22)"/><path class="cls-2" d="M122.07,170.18a28.31,28.31,0,0,0-12.31,3,28.52,28.52,0,0,1-5.26,7.4,25.36,25.36,0,0,1,16.68-7.37c.34-1,.63-2,.89-3" transform="translate(-7.21 -7.22)"/><path class="cls-2" d="M102.49,178.36l-.4.41a27.92,27.92,0,0,0-5.15,7.28,28.69,28.69,0,0,0,7.38-5.27l.18-.19a28.49,28.49,0,0,0,5.25-7.4,28.47,28.47,0,0,0-7.26,5.17" transform="translate(-7.21 -7.22)"/><path class="cls-2" d="M84.28,132c-.16,0-.32,0-.47,0a28.67,28.67,0,0,0-19,7.72c-.38.41-.77.8-1.18,1.18a28.28,28.28,0,0,0-4.84,6.93,28.47,28.47,0,0,0,7-4.89c.34-.35.69-.69,1-1a25.31,25.31,0,0,1,16-6.87c.46,0,.91-.07,1.38-.07a25.49,25.49,0,0,1,25.45,25.46c0,.48,0,.94-.07,1.41,1-.34,2-.64,3-.91,0-.17,0-.33,0-.5A28.49,28.49,0,0,0,84.28,132" transform="translate(-7.21 -7.22)"/><path class="cls-2" d="M143.16,179c-.4-.44-.82-.86-1.25-1.27.4.44.82.86,1.25,1.27" transform="translate(-7.21 -7.22)"/><path class="cls-2" d="M139.71,179.82c.45.49.92,1,1.41,1.42-.45-.5-.92-1-1.41-1.42" transform="translate(-7.21 -7.22)"/><path class="cls-2" d="M189,160.08c-1-.27-2.05-.56-3.05-.91,0,.44.07.88.07,1.34A25.49,25.49,0,0,1,160.52,186c-.45,0-.89,0-1.33-.06a25.42,25.42,0,0,1-16-6.86c-.43-.41-.85-.83-1.25-1.27A28.63,28.63,0,0,0,135,173a28.17,28.17,0,0,0-25.22,0,28.46,28.46,0,0,0-7.09,5c-.27.29-.55.57-.84.85a25.3,25.3,0,0,1-16.16,7.05c-.47,0-.94.07-1.41.07a25.49,25.49,0,0,1-25.46-25.45c0-.47,0-.92.07-1.38-1,.35-2,.64-3,.91,0,.16,0,.31,0,.47a28.49,28.49,0,0,0,28.46,28.45l.5,0A28.68,28.68,0,0,0,103.91,181c.31-.33.64-.66,1-1a25.34,25.34,0,0,1,16.35-7c0,.06,0,.12,0,.19.41,0,.81-.07,1.23-.07A25.46,25.46,0,1,1,97,198.62c0-.42,0-.82.06-1.23-1,.34-2,.63-3,.9,0,.11,0,.22,0,.33a28.45,28.45,0,1,0,53.86-12.73.57.57,0,0,0,.13.08,28.32,28.32,0,0,0,12.15,3l.42,0A28.49,28.49,0,0,0,189,160.51c0-.15,0-.29,0-.43" transform="translate(-7.21 -7.22)"/><path class="cls-2" d="M173.22,109.68A28.57,28.57,0,0,0,185.93,97a28.62,28.62,0,0,0-12.71,12.71" transform="translate(-7.21 -7.22)"/><path class="cls-2" d="M180.06,101l5.87-4a28.61,28.61,0,0,0-5.87,4" transform="translate(-7.21 -7.22)"/><path class="cls-2" d="M161.9,109.66c-.45,0-.91.07-1.38.07a25.49,25.49,0,0,1-25.45-25.46c0-.45,0-.9.07-1.36-1,.35-2,.65-3,.91,0,.15,0,.3,0,.45a28.49,28.49,0,0,0,28.45,28.46l.47,0a28.4,28.4,0,0,0,12.23-3,28.6,28.6,0,0,1,6.84-8.67l-1.1.76a25.37,25.37,0,0,1-17.06,7.89" transform="translate(-7.21 -7.22)"/><path class="cls-2" d="M198.64,93.94a28.22,28.22,0,0,0-12.5,2.94,28.6,28.6,0,0,1-4.91,7,25.44,25.44,0,1,1,17.41,44c-.46,0-.9,0-1.35-.07.35,1,.65,2,.91,3l.44,0a28.45,28.45,0,1,0,0-56.9" transform="translate(-7.21 -7.22)"/><path class="cls-2" d="M160.52,132.05a28.49,28.49,0,0,0-28.45,28.46c0,.15,0,.31,0,.46,1,.27,2,.56,3,.91,0-.46-.07-.91-.07-1.37a25.49,25.49,0,0,1,25.45-25.46c.47,0,.91,0,1.37.07-.35-1-.64-2-.91-3-.15,0-.3,0-.46,0" transform="translate(-7.21 -7.22)"/><path class="cls-3" d="M132.1,161c1,.27,2,.56,3,.91-1-.35-2-.64-3-.91" transform="translate(-7.21 -7.22)"/></svg>